<?xml version="1.0" encoding="UTF-8"?>
<svg xmlns="http://www.w3.org/2000/svg" viewBox="0 0 48 48">
  <!-- Simplified Workspace colorful pinwheel -->
  <circle cx="24" cy="24" r="20" fill="#ffffff"/>
  <path d="M24 8a16 16 0 0 1 11.3 4.7L24 24V8z" fill="#1A73E8"/>
  <path d="M35.3 12.7A16 16 0 0 1 40 24H24l11.3-11.3z" fill="#34A853"/>
  <path d="M40 24a16 16 0 0 1-4.7 11.3L24 24h16z" fill="#FBBC05"/>
  <path d="M35.3 35.3A16 16 0 0 1 24 40V24l11.3 11.3z" fill="#EA4335"/>
  <path d="M24 40a16 16 0 0 1-11.3-4.7L24 24v16z" fill="#1A73E8" opacity="0.8"/>
  <path d="M12.7 35.3A16 16 0 0 1 8 24h16L12.7 35.3z" fill="#34A853" opacity="0.8"/>
  <path d="M8 24a16 16 0 0 1 4.7-11.3L24 24H8z" fill="#FBBC05" opacity="0.8"/>
  <path d="M12.7 12.7A16 16 0 0 1 24 8v16L12.7 12.7z" fill="#EA4335" opacity="0.8"/>
</svg>
